<mxfile host="app.diagrams.net" modified="2023-04-06T03:09:10.071Z" agent="Mozilla/5.0 (Windows NT 10.0; Win64; x64) AppleWebKit/537.36 (KHTML, like Gecko) Chrome/109.0.0.0 Safari/537.36" etag="54r2BT-aq0p3g96gzl6s" version="21.1.4" type="github">
  <diagram name="第 1 页" id="NblAXjC7mbTJUt5rKnVX">
    <mxGraphModel dx="1674" dy="796" grid="1" gridSize="10" guides="1" tooltips="1" connect="1" arrows="1" fold="1" page="1" pageScale="1" pageWidth="1654" pageHeight="2336" math="0" shadow="0">
      <root>
        <mxCell id="0" />
        <mxCell id="1" parent="0" />
        <mxCell id="OwzO4WwCmqvxQ3wz58n--1" value="&lt;font style=&quot;font-size: 18px;&quot;&gt;常量识别&lt;/font&gt;" style="rounded=0;whiteSpace=wrap;html=1;" vertex="1" parent="1">
          <mxGeometry x="20" y="390" width="90" height="60" as="geometry" />
        </mxCell>
        <mxCell id="OwzO4WwCmqvxQ3wz58n--2" value="&lt;p&gt;&lt;/p&gt;&lt;span style=&quot;background-color: initial;&quot;&gt;&lt;font size=&quot;3&quot; face=&quot;等线&quot;&gt;constant_list:[(“String”,“xx”), (“Date”,“2022-01-01”), ....]&lt;/font&gt;&lt;br&gt;&lt;/span&gt;" style="shape=note;whiteSpace=wrap;html=1;backgroundOutline=1;darkOpacity=0.05;" vertex="1" parent="1">
          <mxGeometry x="45" y="480" width="170" height="90" as="geometry" />
        </mxCell>
        <mxCell id="OwzO4WwCmqvxQ3wz58n--4" value="&lt;p&gt;&lt;/p&gt;&lt;span style=&quot;background-color: initial;&quot;&gt;&lt;div&gt;&lt;font size=&quot;3&quot; face=&quot;等线&quot;&gt;template:&lt;/font&gt;&lt;span style=&quot;font-family: 等线; font-size: medium; background-color: initial;&quot;&gt;{&lt;/span&gt;&lt;/div&gt;&lt;div&gt;&lt;font size=&quot;3&quot; face=&quot;等线&quot;&gt;&amp;nbsp; key-X : value-A,&lt;/font&gt;&lt;/div&gt;&lt;div&gt;&lt;font size=&quot;3&quot; face=&quot;等线&quot;&gt;&amp;nbsp; key-Y : value-B,&lt;/font&gt;&lt;/div&gt;&lt;div&gt;&lt;font size=&quot;3&quot; face=&quot;等线&quot;&gt;&amp;nbsp; key-Z : value-C&lt;/font&gt;&lt;/div&gt;&lt;div&gt;&lt;font size=&quot;3&quot; face=&quot;等线&quot;&gt;},&lt;/font&gt;&lt;/div&gt;&lt;div&gt;&lt;font size=&quot;3&quot; face=&quot;等线&quot;&gt;constant_list: ...&lt;/font&gt;&lt;/div&gt;&lt;div&gt;&lt;font size=&quot;3&quot; face=&quot;等线&quot;&gt;dependencies: ...&lt;/font&gt;&lt;/div&gt;&lt;div&gt;&lt;br&gt;&lt;/div&gt;&lt;/span&gt;" style="shape=note;whiteSpace=wrap;html=1;backgroundOutline=1;darkOpacity=0.05;" vertex="1" parent="1">
          <mxGeometry x="570" y="280" width="150" height="150" as="geometry" />
        </mxCell>
        <mxCell id="OwzO4WwCmqvxQ3wz58n--15" style="edgeStyle=orthogonalEdgeStyle;rounded=0;orthogonalLoop=1;jettySize=auto;html=1;exitX=1;exitY=0.5;exitDx=0;exitDy=0;entryX=0;entryY=0.5;entryDx=0;entryDy=0;" edge="1" parent="1" source="OwzO4WwCmqvxQ3wz58n--5" target="OwzO4WwCmqvxQ3wz58n--6">
          <mxGeometry relative="1" as="geometry" />
        </mxCell>
        <mxCell id="OwzO4WwCmqvxQ3wz58n--5" value="&lt;span style=&quot;font-size: 18px;&quot;&gt;转化为SMT&lt;/span&gt;" style="rounded=0;whiteSpace=wrap;html=1;" vertex="1" parent="1">
          <mxGeometry x="430" y="450" width="120" height="60" as="geometry" />
        </mxCell>
        <mxCell id="OwzO4WwCmqvxQ3wz58n--6" value="&lt;span style=&quot;font-size: 18px;&quot;&gt;使用SMT Sampler&lt;br&gt;或者&lt;br&gt;CSP Solver求解&lt;br&gt;&lt;/span&gt;" style="rounded=0;whiteSpace=wrap;html=1;" vertex="1" parent="1">
          <mxGeometry x="710" y="445" width="170" height="70" as="geometry" />
        </mxCell>
        <mxCell id="OwzO4WwCmqvxQ3wz58n--8" value="&lt;span style=&quot;font-size: 18px;&quot;&gt;静态分析&lt;/span&gt;" style="rounded=0;whiteSpace=wrap;html=1;" vertex="1" parent="1">
          <mxGeometry x="20" y="300" width="220" height="60" as="geometry" />
        </mxCell>
        <mxCell id="OwzO4WwCmqvxQ3wz58n--10" value="&lt;p&gt;&lt;/p&gt;&lt;span style=&quot;background-color: initial;&quot;&gt;&lt;div&gt;&lt;font size=&quot;3&quot; face=&quot;等线&quot;&gt;&lt;div&gt;{&lt;/div&gt;&lt;div&gt;&amp;nbsp; &quot;key-y&quot; : &quot;xx&quot;,&lt;/div&gt;&lt;div&gt;&amp;nbsp; &quot;key-z&quot; : True&lt;/div&gt;&lt;div&gt;}&lt;/div&gt;&lt;/font&gt;&lt;/div&gt;&lt;/span&gt;" style="shape=note;whiteSpace=wrap;html=1;backgroundOutline=1;darkOpacity=0.05;" vertex="1" parent="1">
          <mxGeometry x="970" y="350" width="150" height="100" as="geometry" />
        </mxCell>
        <mxCell id="OwzO4WwCmqvxQ3wz58n--11" value="&lt;p&gt;&lt;/p&gt;&lt;span style=&quot;background-color: initial;&quot;&gt;&lt;font size=&quot;3&quot; face=&quot;等线&quot;&gt;&lt;div&gt;{&lt;/div&gt;&lt;div&gt;&amp;nbsp; &quot;key-x&quot; : “aa&quot;,&lt;/div&gt;&lt;div&gt;&amp;nbsp; &quot;key-z&quot; : False&lt;/div&gt;&lt;div&gt;}&lt;/div&gt;&lt;/font&gt;&lt;/span&gt;" style="shape=note;whiteSpace=wrap;html=1;backgroundOutline=1;darkOpacity=0.05;" vertex="1" parent="1">
          <mxGeometry x="840" y="310" width="150" height="100" as="geometry" />
        </mxCell>
        <mxCell id="OwzO4WwCmqvxQ3wz58n--16" style="edgeStyle=orthogonalEdgeStyle;rounded=0;orthogonalLoop=1;jettySize=auto;html=1;exitX=1;exitY=0.5;exitDx=0;exitDy=0;" edge="1" parent="1" source="OwzO4WwCmqvxQ3wz58n--6">
          <mxGeometry relative="1" as="geometry">
            <mxPoint x="640" y="490" as="sourcePoint" />
            <mxPoint x="1150" y="480" as="targetPoint" />
          </mxGeometry>
        </mxCell>
        <mxCell id="OwzO4WwCmqvxQ3wz58n--17" value="&lt;span style=&quot;font-size: 18px;&quot;&gt;求解结果转换回&lt;br&gt;生成的对象&lt;br&gt;&lt;/span&gt;" style="rounded=0;whiteSpace=wrap;html=1;" vertex="1" parent="1">
          <mxGeometry x="1150" y="440" width="170" height="70" as="geometry" />
        </mxCell>
        <mxCell id="OwzO4WwCmqvxQ3wz58n--19" value="&lt;span style=&quot;font-size: 18px;&quot;&gt;执行测试&lt;br&gt;&lt;/span&gt;" style="rounded=0;whiteSpace=wrap;html=1;" vertex="1" parent="1">
          <mxGeometry x="1160" y="65" width="170" height="70" as="geometry" />
        </mxCell>
        <mxCell id="OwzO4WwCmqvxQ3wz58n--49" style="edgeStyle=orthogonalEdgeStyle;rounded=0;orthogonalLoop=1;jettySize=auto;html=1;exitX=0;exitY=0;exitDx=55;exitDy=0;exitPerimeter=0;entryX=0.5;entryY=0;entryDx=0;entryDy=0;" edge="1" parent="1" source="OwzO4WwCmqvxQ3wz58n--20" target="OwzO4WwCmqvxQ3wz58n--19">
          <mxGeometry relative="1" as="geometry" />
        </mxCell>
        <mxCell id="OwzO4WwCmqvxQ3wz58n--57" style="edgeStyle=orthogonalEdgeStyle;rounded=0;orthogonalLoop=1;jettySize=auto;html=1;exitX=0.5;exitY=1;exitDx=0;exitDy=0;exitPerimeter=0;entryX=0;entryY=0.5;entryDx=0;entryDy=0;" edge="1" parent="1" source="OwzO4WwCmqvxQ3wz58n--20" target="OwzO4WwCmqvxQ3wz58n--32">
          <mxGeometry relative="1" as="geometry" />
        </mxCell>
        <mxCell id="OwzO4WwCmqvxQ3wz58n--20" value="&lt;font style=&quot;font-size: 18px;&quot;&gt;测试代码&lt;/font&gt;" style="shape=card;whiteSpace=wrap;html=1;" vertex="1" parent="1">
          <mxGeometry x="230" y="50" width="80" height="100" as="geometry" />
        </mxCell>
        <mxCell id="OwzO4WwCmqvxQ3wz58n--52" style="edgeStyle=orthogonalEdgeStyle;rounded=0;orthogonalLoop=1;jettySize=auto;html=1;exitX=0.5;exitY=0;exitDx=0;exitDy=0;exitPerimeter=0;entryX=0.5;entryY=0;entryDx=0;entryDy=0;" edge="1" parent="1" source="OwzO4WwCmqvxQ3wz58n--21" target="OwzO4WwCmqvxQ3wz58n--19">
          <mxGeometry relative="1" as="geometry" />
        </mxCell>
        <mxCell id="OwzO4WwCmqvxQ3wz58n--21" value="&lt;font style=&quot;font-size: 18px;&quot;&gt;测试依赖的&lt;br&gt;JSON对象/&lt;br&gt;XML对象&lt;/font&gt;" style="shape=card;whiteSpace=wrap;html=1;" vertex="1" parent="1">
          <mxGeometry x="450" y="50" width="190" height="100" as="geometry" />
        </mxCell>
        <mxCell id="OwzO4WwCmqvxQ3wz58n--47" style="edgeStyle=orthogonalEdgeStyle;rounded=0;orthogonalLoop=1;jettySize=auto;html=1;exitX=0;exitY=0;exitDx=55;exitDy=0;exitPerimeter=0;entryX=0.5;entryY=0;entryDx=0;entryDy=0;" edge="1" parent="1" source="OwzO4WwCmqvxQ3wz58n--23" target="OwzO4WwCmqvxQ3wz58n--19">
          <mxGeometry relative="1" as="geometry" />
        </mxCell>
        <mxCell id="OwzO4WwCmqvxQ3wz58n--55" style="edgeStyle=orthogonalEdgeStyle;rounded=0;orthogonalLoop=1;jettySize=auto;html=1;exitX=0.5;exitY=1;exitDx=0;exitDy=0;exitPerimeter=0;" edge="1" parent="1" source="OwzO4WwCmqvxQ3wz58n--23" target="OwzO4WwCmqvxQ3wz58n--8">
          <mxGeometry relative="1" as="geometry" />
        </mxCell>
        <mxCell id="OwzO4WwCmqvxQ3wz58n--23" value="&lt;font style=&quot;font-size: 18px;&quot;&gt;项目代码&lt;/font&gt;" style="shape=card;whiteSpace=wrap;html=1;" vertex="1" parent="1">
          <mxGeometry x="90" y="50" width="80" height="100" as="geometry" />
        </mxCell>
        <mxCell id="OwzO4WwCmqvxQ3wz58n--25" value="&lt;p&gt;&lt;/p&gt;&lt;span style=&quot;background-color: initial;&quot;&gt;&lt;font size=&quot;3&quot; face=&quot;等线&quot;&gt;&lt;div&gt;dependencies:&lt;/div&gt;&lt;div&gt;OneOf(key-X, key-Y)&lt;/div&gt;&lt;div&gt;value-B in [&#39;xx&#39;, &#39;yy&#39;, &#39;zz&#39;]&lt;/div&gt;&lt;div&gt;(value-B == &#39;xx&#39;) ==&amp;gt; (value-C == True)&lt;/div&gt;&lt;/font&gt;&lt;/span&gt;" style="shape=note;whiteSpace=wrap;html=1;backgroundOutline=1;darkOpacity=0.05;" vertex="1" parent="1">
          <mxGeometry x="100" y="560" width="180" height="100" as="geometry" />
        </mxCell>
        <mxCell id="OwzO4WwCmqvxQ3wz58n--63" style="edgeStyle=orthogonalEdgeStyle;rounded=0;orthogonalLoop=1;jettySize=auto;html=1;exitX=1;exitY=0.5;exitDx=0;exitDy=0;entryX=0.5;entryY=0;entryDx=0;entryDy=0;" edge="1" parent="1" source="OwzO4WwCmqvxQ3wz58n--32" target="OwzO4WwCmqvxQ3wz58n--37">
          <mxGeometry relative="1" as="geometry">
            <mxPoint x="490" y="290" as="targetPoint" />
          </mxGeometry>
        </mxCell>
        <mxCell id="OwzO4WwCmqvxQ3wz58n--32" value="&lt;span style=&quot;font-size: 18px;&quot;&gt;识别测试依赖的复杂对象&lt;/span&gt;" style="rounded=0;whiteSpace=wrap;html=1;" vertex="1" parent="1">
          <mxGeometry x="330" y="200" width="120" height="60" as="geometry" />
        </mxCell>
        <mxCell id="OwzO4WwCmqvxQ3wz58n--39" style="edgeStyle=orthogonalEdgeStyle;rounded=0;orthogonalLoop=1;jettySize=auto;html=1;exitX=0.5;exitY=1;exitDx=0;exitDy=0;entryX=0.5;entryY=0;entryDx=0;entryDy=0;" edge="1" parent="1" source="OwzO4WwCmqvxQ3wz58n--37" target="OwzO4WwCmqvxQ3wz58n--5">
          <mxGeometry relative="1" as="geometry" />
        </mxCell>
        <mxCell id="OwzO4WwCmqvxQ3wz58n--37" value="&lt;font style=&quot;font-size: 18px;&quot;&gt;生成schema&lt;/font&gt;" style="rounded=0;whiteSpace=wrap;html=1;" vertex="1" parent="1">
          <mxGeometry x="430" y="330" width="120" height="60" as="geometry" />
        </mxCell>
        <mxCell id="OwzO4WwCmqvxQ3wz58n--42" value="&lt;span style=&quot;font-size: 18px;&quot;&gt;依赖分析&lt;/span&gt;" style="rounded=0;whiteSpace=wrap;html=1;" vertex="1" parent="1">
          <mxGeometry x="150" y="390" width="90" height="60" as="geometry" />
        </mxCell>
        <mxCell id="OwzO4WwCmqvxQ3wz58n--43" value="" style="shape=flexArrow;endArrow=classic;html=1;rounded=0;" edge="1" parent="1">
          <mxGeometry width="50" height="50" relative="1" as="geometry">
            <mxPoint x="270" y="370" as="sourcePoint" />
            <mxPoint x="410" y="370" as="targetPoint" />
          </mxGeometry>
        </mxCell>
        <mxCell id="OwzO4WwCmqvxQ3wz58n--64" style="edgeStyle=orthogonalEdgeStyle;rounded=0;orthogonalLoop=1;jettySize=auto;html=1;exitX=0.5;exitY=0;exitDx=0;exitDy=0;entryX=0.5;entryY=1;entryDx=0;entryDy=0;entryPerimeter=0;" edge="1" parent="1" source="OwzO4WwCmqvxQ3wz58n--17" target="OwzO4WwCmqvxQ3wz58n--21">
          <mxGeometry relative="1" as="geometry">
            <mxPoint x="560" y="490" as="sourcePoint" />
            <mxPoint x="520" y="180" as="targetPoint" />
            <Array as="points">
              <mxPoint x="1235" y="220" />
              <mxPoint x="545" y="220" />
            </Array>
          </mxGeometry>
        </mxCell>
      </root>
    </mxGraphModel>
  </diagram>
</mxfile>
